<?xml version="1.0" encoding="UTF-8"?>
<svg version="1.1" xmlns="http://www.w3.org/2000/svg" width="190" height="190">
<path d="M0 0 C3 1 3 1 4.31640625 3.51171875 C4.72761719 4.55972656 5.13882813 5.60773437 5.5625 6.6875 C5.97628906 7.72261719 6.39007813 8.75773438 6.81640625 9.82421875 C10.44824933 19.56906503 10.44824933 19.56906503 9 25 C8.01 26.485 8.01 26.485 7 28 C8.05058594 27.7834375 9.10117188 27.566875 10.18359375 27.34375 C22.25529976 24.91875899 31.80768392 24.68944264 44 27 C43.71125 25.96875 43.4225 24.9375 43.125 23.875 C42.14233034 16.35017344 46.85801018 8.01003822 51.08203125 2.07421875 C51.71496094 1.38972656 52.34789063 0.70523437 53 0 C53.66 0 54.32 0 55 0 C57.00512267 7.76985035 58.18675134 16.01457148 57 24 C54.98046875 26.29296875 54.98046875 26.29296875 53 28 C52.77707415 30.03676643 52.77707415 30.03676643 54 32 C55.64302953 33.68997323 57.31471312 35.35216394 59 37 C61.07359762 39.61390123 63.04690996 42.2952052 65 45 C68.36527687 44.3191184 71.09108429 43.02690957 74.125 41.4375 C78.77903683 39 78.77903683 39 81 39 C81 39.66 81 40.32 81 41 C78.85718967 42.46582355 76.73293604 43.81123514 74.5 45.125 C73.87996094 45.49753906 73.25992188 45.87007812 72.62109375 46.25390625 C71.08462162 47.17578953 69.54279325 48.08873475 68 49 C68.33 49.99 68.66 50.98 69 52 C75.93 50.68 82.86 49.36 90 48 C90.33 48.66 90.66 49.32 91 50 C88.41877492 50.84039886 85.83536099 51.67250556 83.25 52.5 C82.52039063 52.73847656 81.79078125 52.97695313 81.0390625 53.22265625 C80.33007812 53.44824219 79.62109375 53.67382812 78.890625 53.90625 C78.24125977 54.11572266 77.59189453 54.32519531 76.92285156 54.54101562 C75 55 75 55 71 55 C71 55.66 71 56.32 71 57 C72.03640625 56.84402344 73.0728125 56.68804687 74.140625 56.52734375 C75.51035891 56.33032723 76.88015389 56.13373489 78.25 55.9375 C78.93191406 55.83373047 79.61382812 55.72996094 80.31640625 55.62304688 C83.7849925 55.13475075 86.66911113 54.77237859 90 56 C86.47844036 58.34770643 84.49228157 58.37669614 80.3125 58.625 C78.54326172 58.73714844 78.54326172 58.73714844 76.73828125 58.8515625 C75.83464844 58.90054688 74.93101562 58.94953125 74 59 C74.33 59.66 74.66 60.32 75 61 C76.2375 60.98428955 76.2375 60.98428955 77.5 60.96826172 C106.14719968 60.65253505 106.14719968 60.65253505 118.1640625 62.5625 C121.18062484 63.10164423 121.18062484 63.10164423 125 63 C124.67 64.65 124.34 66.3 124 68 C124.99 68 125.98 68 127 68 C126.835 68.763125 126.67 69.52625 126.5 70.3125 C125.90854604 73.03596236 125.90854604 73.03596236 126 76 C125.071875 76.515625 124.14375 77.03125 123.1875 77.5625 C120.08567017 79.32616467 117.10745128 81.22955489 114.125 83.1875 C106.69668915 87.96655313 98.83918648 91.94714978 91 96 C91.57625762 100.43275096 92.35141741 104.68132944 93.5 109 C98.79371146 128.90435509 96.07380386 147.52939074 86.02880859 165.26416016 C80.0519141 175.34857399 70.99676906 184.52836441 60 189 C53.45007679 190.29528145 46.96685997 190.25993791 40.3125 190.3125 C39.07693359 190.34150391 37.84136719 190.37050781 36.56835938 190.40039062 C35.38693359 190.40876953 34.20550781 190.41714844 32.98828125 190.42578125 C31.91102783 190.44036377 30.83377441 190.45494629 29.72387695 190.4699707 C27 190 27 190 25.12573242 187.97338867 C24.56849487 186.99656128 24.56849487 186.99656128 24 186 C23.46858398 186.65355469 22.93716797 187.30710938 22.38964844 187.98046875 C19.30390226 190.58828366 17.75784943 190.44802767 13.765625 190.3125 C12.55132812 190.27253906 11.33703125 190.23257813 10.0859375 190.19140625 C8.82007812 190.12824219 7.55421875 190.06507813 6.25 190 C4.99960938 189.96777344 3.74921875 189.93554688 2.4609375 189.90234375 C-4.76810083 189.60431786 -9.84517526 188.85034385 -16 185 C-16.763125 184.53335938 -17.52625 184.06671875 -18.3125 183.5859375 C-19.9108353 182.43898393 -21.4575648 181.22109454 -23 180 C-23 179.34 -23 178.68 -23 178 C-23.99 177.67 -24.98 177.34 -26 177 C-35.8706455 166.26449794 -41.4600775 153.49651182 -43 139 C-43.66 139 -44.32 139 -45 139 C-45 138.34 -45 137.68 -45 137 C-46.98 137.99 -46.98 137.99 -49 139 C-49.33 137.68 -49.66 136.36 -50 135 C-51.32 135 -52.64 135 -54 135 C-54.14050781 134.13632813 -54.28101563 133.27265625 -54.42578125 132.3828125 C-54.78829907 130.24716329 -55.17799072 128.11578804 -55.60546875 125.9921875 C-58.0109157 113.10932399 -55.83888562 103.1661451 -49 92 C-43.62403596 84.33591903 -37.23430717 77.16024236 -29.75 71.5 C-26.34465077 68.40422797 -24.76768897 65.19046268 -23 61 C-23.81210938 61.24556641 -23.81210938 61.24556641 -24.640625 61.49609375 C-27.40222593 62.08590587 -29.92818139 62.09609308 -32.75 62.0625 C-33.73484375 62.05347656 -34.7196875 62.04445312 -35.734375 62.03515625 C-36.48203125 62.02355469 -37.2296875 62.01195312 -38 62 C-37.67 61.34 -37.34 60.68 -37 60 C-31.48328169 58.47749852 -25.71937774 57.69084445 -20 58 C-20 57.34 -20 56.68 -20 56 C-26.93 55.34 -33.86 54.68 -41 54 C-41 53.34 -41 52.68 -41 52 C-33.08 52 -25.16 52 -17 52 C-17 51.34 -17 50.68 -17 50 C-18.08539063 49.66226563 -19.17078125 49.32453125 -20.2890625 48.9765625 C-21.73438461 48.52607249 -23.17969657 48.07554993 -24.625 47.625 C-25.69427734 47.29242188 -25.69427734 47.29242188 -26.78515625 46.953125 C-30.87193248 45.67835076 -34.94357149 44.36920458 -39 43 C-38.67 42.34 -38.34 41.68 -38 41 C-29.63571559 42.53943885 -21.28634928 44.0763832 -13 46 C-12.74089844 45.42378906 -12.48179688 44.84757812 -12.21484375 44.25390625 C-10.90400618 41.82190213 -9.40402166 39.99287579 -7.5625 37.9375 C-6.96566406 37.26589844 -6.36882813 36.59429687 -5.75390625 35.90234375 C-4.63300414 34.68657687 -3.47362887 33.50452198 -2.26953125 32.37109375 C-1.64111328 31.69240234 -1.64111328 31.69240234 -1 31 C-1.17889053 28.31664208 -2.01716525 26.9762295 -3.59375 24.79296875 C-6.52239561 18.97635316 -4.00163827 11.31792676 -2.1875 5.30859375 C-1.5200666 3.51486648 -0.77079214 1.75180032 0 0 Z " fill="#131313" transform="translate(60,0)"/>
<path d="M0 0 C5.00982208 4.68686186 8.61336114 9.76079566 11.8125 15.8125 C12.1734375 16.49441406 12.534375 17.17632812 12.90625 17.87890625 C16.9362545 27.41285208 16.15512275 40.35581626 12.6875 49.875 C10.28280157 55.26858913 7.37270749 60.11033917 3.8125 64.8125 C3.090625 65.823125 2.36875 66.83375 1.625 67.875 C-7.15974364 77.81635565 -19.53835003 83.94220578 -32.66308594 85.12597656 C-36.57139414 85.32596456 -40.46173007 85.41247201 -44.375 85.4375 C-45.62128174 85.44845703 -46.86756348 85.45941406 -48.15161133 85.47070312 C-66.4138366 85.19143108 -81.46966688 78.86619139 -94.1875 65.8125 C-103.76995008 55.41049827 -106.7132837 42.87442099 -106.45703125 29.14453125 C-105.90323774 16.54368294 -98.42955385 6.70516396 -89.6875 -1.875 C-63.83172408 -24.16307971 -25.37342844 -21.43748999 0 0 Z " fill="#FBFBFB" transform="translate(131.1875,96.1875)"/>
<path d="M0 0 C2.01953125 1.171875 2.01953125 1.171875 3.8125 2.75 C4.41707031 3.26046875 5.02164063 3.7709375 5.64453125 4.296875 C7 6 7 6 7 10 C2.25 9.125 2.25 9.125 0 8 C-4.90338664 7.55423758 -7.72523922 8.6683123 -12 11 C-12.66 11 -13.32 11 -14 11 C-14 8.875 -14 8.875 -13 6 C-9.13597764 2.14500573 -5.66436169 -0.77851417 0 0 Z " fill="#1D1D1D" transform="translate(60,89)"/>
<path d="M0 0 C1.093125 0.00257812 2.18625 0.00515625 3.3125 0.0078125 C4.405625 0.00523438 5.49875 0.00265625 6.625 0 C9.3125 0.1328125 9.3125 0.1328125 10.3125 1.1328125 C10.45365161 3.80340101 10.35497107 6.45713488 10.3125 9.1328125 C8.54175083 9.15986979 6.77088289 9.17923445 5 9.1953125 C4.01386719 9.20691406 3.02773437 9.21851562 2.01171875 9.23046875 C-0.6875 9.1328125 -0.6875 9.1328125 -3.6875 8.1328125 C-3.72991723 5.79986475 -3.72842937 3.46578683 -3.6875 1.1328125 C-2.6875 0.1328125 -2.6875 0.1328125 0 0 Z " fill="#ECECEC" transform="translate(75.6875,60.8671875)"/>
<path d="M0 0 C3.84615894 1.55483021 5.99096603 3.24096603 8.9375 6.1875 C9.8125 8.5 9.8125 8.5 9.9375 10.1875 C4.1875 9.3125 4.1875 9.3125 1.9375 8.1875 C-2.13327116 7.92201492 -4.50603023 8.29071612 -8.0625 10.1875 C-9.3825 10.1875 -10.7025 10.1875 -12.0625 10.1875 C-9.74640091 4.97627704 -5.94163075 0.36377331 0 0 Z " fill="#1B1B1B" transform="translate(85.0625,88.8125)"/>
<path d="M0 0 C4.26604085 1.4737232 6.2858167 2.96077662 9.4375 6.1875 C10.3125 8.5 10.3125 8.5 10.4375 10.1875 C7.85562326 9.75718721 5.77835656 9.38541671 3.5 8.0625 C0.52391884 6.79992011 -1.47338004 7.41522001 -4.5625 8.1875 C-5.90340759 8.83879797 -7.23842331 9.50263275 -8.5625 10.1875 C-9.5525 10.1875 -10.5425 10.1875 -11.5625 10.1875 C-10.82768193 5.86337828 -8.85959518 4.02081902 -5.52734375 1.3359375 C-3.5625 0.1875 -3.5625 0.1875 0 0 Z " fill="#1A1A1A" transform="translate(70.5625,107.8125)"/>
<path d="M0 0 C3.50670208 2.31574666 5.60925821 3.74404426 6.875 7.8125 C6.91625 8.534375 6.9575 9.25625 7 10 C3.62537285 9.45276317 1.91765 8.9451 -1 7 C-5.30915453 6.43300598 -7.41368329 7.73495787 -11 10 C-11.99 10 -12.98 10 -14 10 C-13.52723148 5.74508335 -11.07452523 3.77457155 -8 1 C-5.09704195 -0.45147903 -3.22738221 -0.37239025 0 0 Z " fill="#191919" transform="translate(46,108)"/>
<path d="M0 0 C1.79244141 0.01740234 1.79244141 0.01740234 3.62109375 0.03515625 C5.41740234 0.04869141 5.41740234 0.04869141 7.25 0.0625 C8.17683594 0.07410156 9.10367188 0.08570313 10.05859375 0.09765625 C10.05859375 2.40765625 10.05859375 4.71765625 10.05859375 7.09765625 C5.13122356 9.06860433 1.27838503 9.27764905 -3.94140625 9.09765625 C-4.0390625 2.9453125 -4.0390625 2.9453125 -3.94140625 1.09765625 C-2.94140625 0.09765625 -2.94140625 0.09765625 0 0 Z " fill="#E9E9E9" transform="translate(90.94140625,60.90234375)"/>
<path d="M0 0 C2.23828125 1.42578125 2.23828125 1.42578125 4.3125 3.3125 C5.00988281 3.92738281 5.70726563 4.54226562 6.42578125 5.17578125 C8 7 8 7 8 10 C5.40321849 9.56720308 3.30814759 9.17333302 1 7.875 C-1.75244014 6.67080744 -3.1615514 7.1000041 -6 8 C-7.68029994 8.97691857 -9.34928604 9.97388051 -11 11 C-11.66 11 -12.32 11 -13 11 C-12.91750647 8.19521985 -12.39995673 6.46032756 -10.55078125 4.33203125 C-7.03747186 1.12356432 -4.9609382 -0.73382137 0 0 Z " fill="#171717" transform="translate(114,89)"/>
<path d="M0 0 C4.5962438 1.72359142 7.54045576 4.41741594 10.5 8.3125 C10.5 8.9725 10.5 9.6325 10.5 10.3125 C7.93646623 9.88524437 5.80655104 9.47535524 3.5 8.25 C0.92829842 7.04451489 -0.68206891 6.96884987 -3.5 7.3125 C-5.18756133 8.27682076 -6.85666496 9.27460419 -8.5 10.3125 C-9.49 10.3125 -10.48 10.3125 -11.5 10.3125 C-10.76544972 5.98995412 -8.80265379 4.14212303 -5.4609375 1.46875 C-3.5 0.3125 -3.5 0.3125 0 0 Z " fill="#1D1D1D" transform="translate(126.5,107.6875)"/>
<path d="M0 0 C3.96731871 1.65304946 7.22040486 3.94409099 10 7.25 C10 8.24 10 9.23 10 10.25 C7.41812326 9.81968721 5.34085656 9.44791671 3.0625 8.125 C0.08641884 6.86242011 -1.91088004 7.47772001 -5 8.25 C-6.34090759 8.90129797 -7.67592331 9.56513275 -9 10.25 C-9.99 10.25 -10.98 10.25 -12 10.25 C-9.69307896 5.05942767 -5.89642818 0.49136902 0 0 Z " fill="#1C1C1C" transform="translate(98,107.75)"/>
<path d="M0 0 C2.5625 0.3125 2.5625 0.3125 4.4375 1.375 C6.21032183 4.42819315 5.25485306 6.97661708 4.5625 10.3125 C1.3125 11.0625 1.3125 11.0625 -2.4375 11.3125 C-4.875 9.375 -4.875 9.375 -6.4375 7.3125 C-3.92900142 0.50371813 -3.92900142 0.50371813 0 0 Z " fill="#CFCFCF" transform="translate(109.4375,42.6875)"/>
<path d="M0 0 C3.96 0 7.92 0 12 0 C12 2.31 12 4.62 12 7 C7.17639811 7.19294408 3.50353262 6.75747614 -1 5 C-0.67 3.35 -0.34 1.7 0 0 Z " fill="#E8E8E8" transform="translate(58,61)"/>
<path d="M0 0 C16.8929385 3.07517084 16.8929385 3.07517084 24 5 C23.34 6.98 22.68 8.96 22 11 C21.40191528 10.30716919 21.40191528 10.30716919 20.79174805 9.6003418 C18.68227407 7.71621564 17.04137792 7.17109558 14.33203125 6.39453125 C12.99301758 6.00297852 12.99301758 6.00297852 11.62695312 5.60351562 C10.69818359 5.34248047 9.76941406 5.08144531 8.8125 4.8125 C7.87212891 4.53986328 6.93175781 4.26722656 5.96289062 3.98632812 C3.64429093 3.31546425 1.32347352 2.65374456 -1 2 C-0.67 1.34 -0.34 0.68 0 0 Z " fill="#757575" transform="translate(22,41)"/>
<path d="M0 0 C7.92 0 15.84 0 24 0 C23.01 0.495 23.01 0.495 22 1 C22 1.66 22 2.32 22 3 C19.64575325 3.02726927 17.29183038 3.04696719 14.9375 3.0625 C12.97103516 3.07990234 12.97103516 3.07990234 10.96484375 3.09765625 C7.1836481 3.00452335 3.72079293 2.61448726 0 2 C0 1.34 0 0.68 0 0 Z " fill="#6C6C6C" transform="translate(19,52)"/>
<path d="M0 0 C3.25696479 0.41755959 4.63443291 0.63443291 7 3 C6.67028521 6.29714793 6.3773161 7.6226839 4 10 C0.375 10.125 0.375 10.125 -3 10 C-3.33 8.02 -3.66 6.04 -4 4 C-3.34 3.67 -2.68 3.34 -2 3 C-1.731875 3.639375 -1.46375 4.27875 -1.1875 4.9375 C-0.11332248 7.33131686 -0.11332248 7.33131686 3 8 C3 6.02 3 4.04 3 2 C1.68 1.67 0.36 1.34 -1 1 C-0.67 0.67 -0.34 0.34 0 0 Z " fill="#ECECEC" transform="translate(61,44)"/>
<path d="M0 0 C3.3 0 6.6 0 10 0 C9.67 1.65 9.34 3.3 9 5 C4.545 5.495 4.545 5.495 0 6 C0 4.02 0 2.04 0 0 Z " fill="#F4F4F4" transform="translate(103,62)"/>
<path d="M0 0 C0.66 0.66 1.32 1.32 2 2 C-0.51569008 2.87279044 -3.03564406 3.72318309 -5.5625 4.5625 C-6.61920898 4.9327832 -6.61920898 4.9327832 -7.69726562 5.31054688 C-12.59552532 6.91320327 -15.95662292 7.10675949 -21 6 C-20.67 5.34 -20.34 4.68 -20 4 C-16.76715583 2.94474698 -13.39739014 2.40182987 -10.0625 1.75 C-9.12986328 1.55148438 -8.19722656 1.35296875 -7.23632812 1.1484375 C-6.34494141 0.97054687 -5.45355469 0.79265625 -4.53515625 0.609375 C-3.714104 0.44405273 -2.89305176 0.27873047 -2.04711914 0.10839844 C-1.37156982 0.07262695 -0.69602051 0.03685547 0 0 Z " fill="#777777" transform="translate(149,48)"/>
<path d="M0 0 C-0.33 1.65 -0.66 3.3 -1 5 C-1.33 4.34 -1.66 3.68 -2 3 C-2.54140625 3.16371094 -3.0828125 3.32742187 -3.640625 3.49609375 C-6.40222593 4.08590587 -8.92818139 4.09609308 -11.75 4.0625 C-12.73484375 4.05347656 -13.7196875 4.04445313 -14.734375 4.03515625 C-15.48203125 4.02355469 -16.2296875 4.01195312 -17 4 C-16.67 3.34 -16.34 2.68 -16 2 C-13.671875 1.3671875 -13.671875 1.3671875 -10.75 0.875 C-9.79609375 0.70742188 -8.8421875 0.53984375 -7.859375 0.3671875 C-5.19900755 0.02555561 -2.67794365 -0.06841462 0 0 Z " fill="#646464" transform="translate(39,58)"/>
<path d="M0 0 C-4.2453474 2.8302316 -8.15652548 2.43516669 -13.1640625 2.65625 C-14.56785156 2.82640625 -14.56785156 2.82640625 -16 3 C-16.33 3.66 -16.66 4.32 -17 5 C-17 4.01 -17 3.02 -17 2 C-17.66 1.67 -18.32 1.34 -19 1 C-16.58440932 0.63645961 -14.16805703 0.28389449 -11.75 -0.0625 C-11.06808594 -0.16626953 -10.38617188 -0.27003906 -9.68359375 -0.37695312 C-6.2150075 -0.86524925 -3.33088887 -1.22762141 0 0 Z " fill="#747474" transform="translate(150,56)"/>
<path d="M0 0 C2.5625 0.1875 2.5625 0.1875 4.5625 2.1875 C4.1875 5.8125 4.1875 5.8125 3.5625 9.1875 C1.2525 9.5175 -1.0575 9.8475 -3.4375 10.1875 C-3.4375 9.5275 -3.4375 8.8675 -3.4375 8.1875 C-1.7875 8.1875 -0.1375 8.1875 1.5625 8.1875 C1.2325 6.2075 0.9025 4.2275 0.5625 2.1875 C-0.7575 1.8575 -2.0775 1.5275 -3.4375 1.1875 C-2.4375 0.1875 -2.4375 0.1875 0 0 Z " fill="#EDEDED" transform="translate(110.4375,43.8125)"/>
<path d="M0 0 C0 0.66 0 1.32 0 2 C-2.14281033 3.46582355 -4.26706396 4.81123514 -6.5 6.125 C-7.12003906 6.49753906 -7.74007812 6.87007812 -8.37890625 7.25390625 C-9.91537838 8.17578953 -11.45720675 9.08873475 -13 10 C-13.33 9.34 -13.66 8.68 -14 8 C-14.99 8 -15.98 8 -17 8 C-16.67 7.34 -16.34 6.68 -16 6 C-14.67208653 5.64569125 -13.3373163 5.31697635 -12 5 C-10.27481487 4.1804027 -8.56686642 3.32383599 -6.875 2.4375 C-2.22096317 0 -2.22096317 0 0 0 Z " fill="#818181" transform="translate(141,39)"/>
<path d="M0 0 C0.66 0.33 1.32 0.66 2 1 C-2.46351289 6.22325977 -7.0744893 11.20922972 -12 16 C-12.66 15.67 -13.32 15.34 -14 15 C-12.23000902 13.06172464 -10.45904239 11.12435656 -8.6875 9.1875 C-8.18798828 8.64029297 -7.68847656 8.09308594 -7.17382812 7.52929688 C-4.83056872 4.96878163 -2.48855146 2.42060466 0 0 Z " fill="#4E4E4E" transform="translate(27,74)"/>
<path d="M0 0 C0.598125 0.226875 1.19625 0.45375 1.8125 0.6875 C0.8225 1.0175 -0.1675 1.3475 -1.1875 1.6875 C-0.1975 2.0175 0.7925 2.3475 1.8125 2.6875 C1.8125 4.6675 1.8125 6.6475 1.8125 8.6875 C-0.0625 8.375 -0.0625 8.375 -2.1875 7.6875 C-2.8475 6.6975 -3.5075 5.7075 -4.1875 4.6875 C-4.8475 5.6775 -5.5075 6.6675 -6.1875 7.6875 C-5.82037028 4.97074005 -5.46005401 3.07686287 -3.875 0.8125 C-2.1875 -0.3125 -2.1875 -0.3125 0 0 Z " fill="#BDBDBD" transform="translate(62.1875,43.3125)"/>
<path d="M0 0 C3.63 0.33 7.26 0.66 11 1 C10.34 2.98 9.68 4.96 9 7 C8.62875 6.54625 8.2575 6.0925 7.875 5.625 C5.45735315 3.52970606 3.04569398 2.87986715 0 2 C0 1.34 0 0.68 0 0 Z " fill="#555555" transform="translate(35,45)"/>
<path d="M0 0 C1.37478516 0.01740234 1.37478516 0.01740234 2.77734375 0.03515625 C3.69644531 0.04417969 4.61554688 0.05320313 5.5625 0.0625 C6.27277344 0.07410156 6.98304687 0.08570313 7.71484375 0.09765625 C8.04484375 0.75765625 8.37484375 1.41765625 8.71484375 2.09765625 C6.4859338 3.21211123 5.18429269 3.26245911 2.71484375 3.28515625 C1.66296875 3.30642578 1.66296875 3.30642578 0.58984375 3.328125 C-1.28515625 3.09765625 -1.28515625 3.09765625 -3.28515625 1.09765625 C-2.28515625 0.09765625 -2.28515625 0.09765625 0 0 Z " fill="#E0E1E1" transform="translate(83.28515625,47.90234375)"/>
<path d="M0 0 C0.721875 0.391875 1.44375 0.78375 2.1875 1.1875 C-0.74970508 2.71049523 -3.7293649 3.98850302 -6.8125 5.1875 C-7.1425 4.1975 -7.4725 3.2075 -7.8125 2.1875 C-3.50480769 -1.0125 -3.50480769 -1.0125 0 0 Z " fill="#D8D8D8" transform="translate(56.8125,86.8125)"/>
<path d="M0 0 C1.134375 0.020625 2.26875 0.04125 3.4375 0.0625 C3.4375 1.3825 3.4375 2.7025 3.4375 4.0625 C-2.3125 3.3125 -2.3125 3.3125 -4.5625 1.0625 C-3.5625 0.0625 -3.5625 0.0625 0 0 Z " fill="#CFCFCF" transform="translate(52.5625,61.9375)"/>
<path d="M0 0 C3.63 0 7.26 0 11 0 C11 0.66 11 1.32 11 2 C9.741875 2.185625 8.48375 2.37125 7.1875 2.5625 C6.12595703 2.71912109 6.12595703 2.71912109 5.04296875 2.87890625 C3 3 3 3 0 2 C0 1.34 0 0.68 0 0 Z " fill="#595959" transform="translate(128,52)"/>
<path d="M0 0 C0 0.66 0 1.32 0 2 C-1.98 2.99 -3.96 3.98 -6 5 C-6 4.34 -6 3.68 -6 3 C-6.99 3 -7.98 3 -9 3 C-8 1 -8 1 -6.1875 0.375 C-4 0 -4 0 0 0 Z " fill="#636363" transform="translate(133,44)"/>
<path d="M0 0 C0.99 0 1.98 0 3 0 C3.33 1.32 3.66 2.64 4 4 C2.35 4.33 0.7 4.66 -1 5 C-0.67 3.35 -0.34 1.7 0 0 Z " fill="#2F2F2F" transform="translate(108,46)"/>
<path d="M0 0 C2.64 0 5.28 0 8 0 C6.8125 1.5 6.8125 1.5 5 3 C2.3125 3.1875 2.3125 3.1875 0 3 C0 2.01 0 1.02 0 0 Z " fill="#E7E7E7" transform="translate(115,62)"/>
<path d="M0 0 C1.32 0 2.64 0 4 0 C4 1.65 4 3.3 4 5 C2.68 4.67 1.36 4.34 0 4 C0 2.68 0 1.36 0 0 Z " fill="#232323" transform="translate(60,47)"/>
</svg>
